<?xml version="1.0" encoding="UTF-8"?><svg id="a" xmlns="http://www.w3.org/2000/svg" viewBox="0 0 800 736.1232"><defs><style>.b{opacity:.5;}.c{fill:#666;}</style></defs><g class="b"><circle class="c" cx="171.8569" cy="295.175" r="100.9046"/><path class="c" d="M342.317,498.2855c0,56.4468-340.9202,56.4468-340.9202,0s76.3176-102.2059,170.4601-102.2059,170.4601,45.7591,170.4601,102.2059Z"/></g><g><path class="c" d="M783.3019,253.9692H429.858c-9.2215,0-16.6981-7.476-16.6981-16.6981s7.4767-16.6981,16.6981-16.6981h353.4438c9.2215,0,16.6981,7.476,16.6981,16.6981s-7.4767,16.6981-16.6981,16.6981Z"/><path class="c" d="M783.3019,340.2429H429.858c-9.2215,0-16.6981-7.4767-16.6981-16.6981s7.4767-16.6981,16.6981-16.6981h353.4438c9.2215,0,16.6981,7.4767,16.6981,16.6981s-7.4767,16.6981-16.6981,16.6981Z"/><path class="c" d="M783.3019,426.5166H429.858c-9.2215,0-16.6981-7.4767-16.6981-16.6981s7.4767-16.6981,16.6981-16.6981h353.4438c9.2215,0,16.6981,7.4767,16.6981,16.6981s-7.4767,16.6981-16.6981,16.6981Z"/><path class="c" d="M783.3019,512.7903H429.858c-9.2215,0-16.6981-7.4767-16.6981-16.6981s7.4767-16.6981,16.6981-16.6981h353.4438c9.2215,0,16.6981,7.4767,16.6981,16.6981s-7.4767,16.6981-16.6981,16.6981Z"/></g><g><path class="c" d="M101.4614,294.3231c0,97.4058,109.997,101.5803,54.2689,101.5803-42.673,0-84.8822-41.7453-86.1748-102.1427-1.1924-55.7153,44.4294-96.8434,76.4342-98.2349,31.0858-1.3516-44.5284,10.4281-44.5284,98.7973Z"/><path class="c" d="M26.3198,482.1771c-22.8327,57.0818,230.9909,54.2689,145.5319,59.8121C84.9008,547.6291,0,526.486,0,498.2626c0-56.4468,87.5463-109.3168,171.8516-103.5974,15.005,1.018-114.9186,10.9788-145.5319,87.5119Z"/></g></svg>