<?xml version="1.0" encoding="UTF-8"?><svg id="a" xmlns="http://www.w3.org/2000/svg" viewBox="0 0 736.1232 736.1232"><defs><style>.b{opacity:.5;}.c{fill:#a1393e;}</style></defs><g class="b"><path class="c" d="M152.8741,361.2178c0,70,79.0486,73,39,73-30.6667,0-61-30-61.9289-73.4042-.8569-40.0394,31.9289-69.5958,54.9289-70.5958,22.3396-.9713-32,7.4941-32,71Z"/><path class="c" d="M98.8741,496.2178c-16.4086,41.0214,166,39,104.5855,42.9836-62.4866,4.0531-123.5-11.1413-123.5-31.4238,0-40.5651,62.9145-78.5598,123.5-74.4496,10.7832,.7315-82.5855,7.8898-104.5855,62.8898Z"/></g><g><path class="c" d="M437.2276,74.7813c-1.2988-1.4009-3.0264-2.082-5.2822-2.082-2.249,0-3.9473,.6768-5.1924,2.0688-1.1006,1.231-1.8047,2.96-2.0996,5.1499h14.5615c-.1865-2.188-.8535-3.9131-1.9873-5.1367Z"/><path class="c" d="M705.9938,0H30.1294C13.4894,0,0,13.4894,0,30.1294V705.9938c0,16.64,13.4894,30.1294,30.1294,30.1294H705.9938c16.64,0,30.1294-13.4894,30.1294-30.1294V30.1294c0-16.64-13.4894-30.1294-30.1294-30.1294Zm-136.6089,63.043h10.8555l1.4238,4.9668c1.3438-1.7402,3.0732-3.1074,5.1553-4.0732,2.4541-1.1372,5.2695-1.7139,8.3701-1.7139,5.3369,0,9.4697,1.4902,12.2852,4.4292,2.8018,2.9282,4.2227,7.1631,4.2227,12.5864v29.4766h-13.9141v-26.5078c0-2.9233-.5029-5.1138-1.4951-6.5107-.9287-1.3071-2.4131-1.9424-4.5361-1.9424-3.0039,0-5.0957,.9468-6.3945,2.8945-1.3662,2.0488-2.0586,5.5884-2.0586,10.5195v21.5469h-13.9141V63.043Zm-38.6504,5.5005c3.8379-4.1943,9.1924-6.3208,15.9131-6.3208,6.4219,0,11.5127,1.8755,15.1289,5.5742,3.6104,3.6929,5.4414,8.8301,5.4414,15.2695v6.7812h-28.0928c.2656,2.6221,1.1553,4.7134,2.6484,6.2275,1.6943,1.7183,4.043,2.5537,7.1787,2.5537,2.542,0,4.9756-.2671,7.2334-.7939,2.2656-.5288,4.6699-1.3862,7.1465-2.5488l1.4248-.6689v11.4111l-.5527,.2764c-2.1484,1.0742-4.4756,1.8843-6.917,2.4077-2.4287,.52-5.416,.7837-8.8818,.7837-7.2705,0-13.0518-2.0547-17.1846-6.1064-4.1387-4.0562-6.2373-9.8423-6.2373-17.1982,0-7.541,1.9346-13.4785,5.751-17.6479Zm-76.1299-5.5005h10.8555l1.4111,4.9243c1.2051-1.625,2.7881-2.9453,4.7236-3.9355,2.3447-1.2002,5.0605-1.8091,8.0723-1.8091,6.5977,0,11.2422,2.1313,13.8184,6.3374,1.2549-1.9272,3.0186-3.4575,5.252-4.5552,2.4082-1.1826,5.1523-1.7822,8.1562-1.7822,5.1992,0,9.2158,1.3799,11.9375,4.1016s4.1016,7.0664,4.1016,12.9141v29.4766h-13.9531v-26.5078c0-2.9341-.4756-5.1323-1.4131-6.5337-.8652-1.2915-2.2217-1.9194-4.1494-1.9194-2.5918,0-4.4629,.8813-5.7217,2.6948-1.3203,1.9038-1.9893,5.0503-1.9893,9.3521v22.9141h-13.9141v-26.5078c0-2.9341-.4756-5.1323-1.4131-6.5337-.8652-1.2915-2.2217-1.9194-4.1494-1.9194-2.7002,0-4.5938,.9434-5.7891,2.8838-1.2754,2.0688-1.9219,5.6118-1.9219,10.5303v21.5469h-13.9141V63.043Zm-38.6504,5.5005c3.8379-4.1943,9.1924-6.3208,15.9131-6.3208,6.4219,0,11.5127,1.8755,15.1289,5.5742,3.6104,3.6929,5.4414,8.8301,5.4414,15.2695v6.7812h-28.0928c.2656,2.6221,1.1553,4.7134,2.6484,6.2275,1.6943,1.7183,4.043,2.5537,7.1787,2.5537,2.542,0,4.9756-.2671,7.2334-.7939,2.2656-.5288,4.6699-1.3862,7.1465-2.5488l1.4248-.6689v11.4111l-.5527,.2764c-2.1484,1.0742-4.4756,1.8843-6.917,2.4077-2.4287,.52-5.416,.7837-8.8818,.7837-7.2705,0-13.0518-2.0547-17.1846-6.1064-4.1387-4.0562-6.2373-9.8423-6.2373-17.1982,0-7.541,1.9346-13.4785,5.751-17.6479Zm-221.8057-19.1724h16.2207l19.2568,54.5739V45.9337h13.9141v15.1406c0,1.377-.0913,3.3955-.272,6.021,2.8862-3.2358,6.7954-4.8726,11.6548-4.8726,5.4702,0,9.8169,2.1694,12.9189,6.4482,2.5143,3.4692,3.9835,8.0452,4.416,13.6047,.5446-5.713,2.4331-10.3552,5.6744-13.8005,3.9033-4.1489,9.4316-6.2524,16.4316-6.2524,4.3477,0,8.2466,.9639,11.5884,2.8652,3.3623,1.9141,5.9805,4.6968,7.7812,8.2705,1.7817,3.5371,2.6851,7.7236,2.6851,12.4424,0,7.3389-1.9834,13.1802-5.8945,17.3628-3.9287,4.2017-9.4448,6.3325-16.3945,6.3325-4.3496,0-8.2495-.9712-11.5908-2.8862-3.3623-1.9272-5.98-4.73-7.7803-8.3306-1.3197-2.6395-2.1545-5.6303-2.4997-8.9219-.4399,5.7311-1.9597,10.3756-4.5667,13.8062-3.1924,4.2021-7.5938,6.3325-13.0815,6.3325-5.1289,0-9.2729-1.7915-12.3296-5.3276l-1.8853,4.5464h-24.2871l-4.1406-13.5938h-19.3389l-4.1406,13.5938h-15.1992l20.8594-59.3438Zm-95.0413-.3246h17.1291l23.4408,40.4218c-.2623-5.4611-.3952-9.4998-.3952-12.0348v-28.387h13.1658v59.8522h-17.2501l-23.5129-40.8887c.3384,5.7076,.5093,9.9563,.5093,12.6596v28.2291h-13.0869V49.0466Zm-47.4633,57.0591l-.6043-.2955v-13.6991l1.5165,.6764c3.822,1.7046,7.0928,2.9199,9.7217,3.6123,2.5941,.6835,4.9911,1.03,7.1249,1.03,2.4413,0,4.3085-.4501,5.5495-1.3378,1.1437-.8188,1.6998-2.0298,1.6998-3.7015,0-.9088-.2439-1.6909-.7456-2.3913-.5522-.7709-1.3947-1.537-2.5039-2.2766-1.1755-.783-3.6465-2.0719-7.3435-3.8304-3.5944-1.6896-6.3464-3.3502-8.1749-4.9338-1.8588-1.6085-3.3642-3.5081-4.4736-5.6458-1.1279-2.1711-1.6999-4.7281-1.6999-7.6,0-5.4127,1.8748-9.7396,5.5724-12.8601,3.6428-3.0754,8.7029-4.6347,15.0401-4.6347,3.0775,0,6.0568,.3702,8.8553,1.1005,2.7589,.7195,5.6863,1.7467,8.7009,3.0532l.9734,.4218-4.7644,11.4823-.9932-.4076c-3.0148-1.2368-5.5339-2.11-7.4869-2.5952-1.9206-.4764-3.8317-.718-5.6797-.718-2.0363,0-3.5905,.4551-4.6191,1.3525-.9998,.8719-1.4857,1.9877-1.4857,3.4105,0,.8817,.1921,1.6183,.587,2.2521,.418,.672,1.1187,1.3478,2.0824,2.0093,1.04,.7148,3.6002,2.0474,7.6095,3.9614,5.6011,2.6783,9.3555,5.3177,11.4784,8.0692,2.1392,2.773,3.2237,6.2012,3.2237,10.1887,0,5.5284-2.028,9.954-6.0278,13.1542-3.928,3.1422-9.4194,4.7352-16.3212,4.7352-6.293,0-11.9493-1.2053-16.8116-3.5823Zm29.3194,401.6883c0-40.5651,54.8452-73.4496,122.5-73.4496-40.0485,0-72.5143-32.4658-72.5143-72.5143s32.4658-72.5144,72.5143-72.5144,72.5144,32.4658,72.5144,72.5144-32.4658,72.5143-72.5144,72.5143c67.6549,0,122.5,32.8845,122.5,73.4496s-245,40.5651-245,0ZM361.0552,108.7149h-13.9141v-26.5078c0-2.9233-.5029-5.1138-1.4951-6.5107-.9292-1.3071-2.4131-1.9424-4.5361-1.9424-3.0044,0-5.0962,.9468-6.3945,2.8945-1.3662,2.0488-2.0586,5.5884-2.0586,10.5195v21.5469h-13.9141V63.043h10.855l1.4243,4.9668c1.3438-1.7402,3.0732-3.1074,5.1553-4.0732,2.4536-1.1372,5.2695-1.7139,8.3701-1.7139,5.3369,0,9.4697,1.4902,12.2847,4.4292,2.8022,2.9282,4.2231,7.1631,4.2231,12.5864v29.4766Zm4.7451-45.6719h10.856l1.4238,4.9668c1.3438-1.7402,3.0732-3.1074,5.1553-4.0732,2.4541-1.1372,5.2695-1.7139,8.3701-1.7139,5.3369,0,9.4697,1.4902,12.2852,4.4292,2.8018,2.9282,4.2227,7.1631,4.2227,12.5864v29.4766h-13.9141v-26.5078c0-2.9233-.5029-5.1138-1.4951-6.5107-.9287-1.3071-2.4131-1.9424-4.5361-1.9424-3.0039,0-5.0957,.9468-6.3945,2.8945-1.3662,2.0488-2.0586,5.5884-2.0586,10.5195v21.5469h-13.9146V63.043Zm277.0737,455.1748h-254c-6.627,0-12-5.373-12-12s5.373-12,12-12h254c6.627,0,12,5.373,12,12s-5.373,12-12,12Zm0-62h-254c-6.627,0-12-5.373-12-12s5.373-12,12-12h254c6.627,0,12,5.373,12,12s-5.373,12-12,12Zm0-62h-254c-6.627,0-12-5.373-12-12s5.373-12,12-12h254c6.627,0,12,5.373,12,12s-5.373,12-12,12Zm0-62h-254c-6.627,0-12-5.3726-12-12s5.373-12,12-12h254c6.627,0,12,5.3726,12,12s-5.373,12-12,12Zm30.1777-226.4385c-3.2754,2.4663-8.1758,3.7168-14.5664,3.7168-3.2256,0-6.0225-.2227-8.3135-.6626-2.0527-.3938-4.0059-.9695-5.8301-1.696v.0143l-.5918,.2646c-3.084,1.3799-6.9014,2.0796-11.3457,2.0796-5.0391,0-8.792-1.3267-11.1523-3.9434-2.335-2.5859-3.5195-6.4585-3.5195-11.5098v-20.0547h-5.7031v-6.6016l6.7471-4.0967,3.5586-9.5439h9.3115v9.2969h12.2266v7.5932c.8026-2.0043,2.1461-3.6992,4.0557-5.0468,3.166-2.2339,7.6641-3.3667,13.3691-3.3667,5.3789,0,10.6846,1.1875,15.7695,3.5293l.877,.4038-4.3555,10.4146-.9268-.3975c-2.1396-.9165-4.1719-1.6807-6.04-2.27-1.7959-.5654-3.6533-.8521-5.5195-.8521-2.8359,0-4.2734,.623-4.2734,1.8516,0,.7241,.4141,1.3623,1.2666,1.9502,1.0684,.7363,3.5059,1.8706,7.2461,3.3716,3.5283,1.4282,6.0557,2.7354,7.7295,3.9966,1.709,1.29,2.9922,2.8052,3.8145,4.5039,.8174,1.6934,1.2324,3.7188,1.2324,6.0215,0,4.7886-1.7041,8.5005-5.0664,11.0332Z"/><path class="c" d="M251.251,97.8477c2.103,0,3.7383-.9546,4.998-2.9189,1.3335-2.0776,2.0098-5.2012,2.0098-9.2842,0-4.0723-.6777-7.1362-2.0151-9.1064-1.272-1.8735-2.9565-2.7842-5.1489-2.7842-2.6338,0-4.48,.7568-5.6445,2.314-1.2188,1.6289-1.8613,4.4478-1.9102,8.3779v1.2769c0,4.4604,.644,7.6606,1.9146,9.5122,1.2051,1.7583,3.1011,2.6128,5.7964,2.6128Z"/><path class="c" d="M294.2857,97.9258c2.8364,0,4.8027-.9277,6.0107-2.8354,1.2837-2.0283,1.9346-5.1538,1.9346-9.2896,0-4.1055-.6553-7.1943-1.9478-9.1812-1.2202-1.876-3.208-2.7876-6.0757-2.7876-2.8428,0-4.8184,.9062-6.0381,2.7705-1.2915,1.9727-1.9463,5.0674-1.9463,9.1982,0,4.1099,.6631,7.2271,1.9707,9.2646,1.2334,1.9248,3.2261,2.8604,6.0918,2.8604Z"/><path class="c" d="M202.3946,63.3521c-.0312-.1045-.0615-.2075-.0918-.3091-1.2007,4.1787-3.2129,10.8467-6.0122,19.9219h12.1694c-3.6196-11.6484-5.605-18.0688-6.0654-19.6128Z"/><path class="c" d="M661.0655,92.6422c-1.3682-.7222-3.2344-1.5835-5.5479-2.5605-3.4678-1.4521-5.9609-2.7715-7.6182-4.0317-1.6992-1.2905-2.958-2.8042-3.7402-4.4976-.7734-1.6724-1.166-3.7388-1.166-6.1421,0-.4871,.0276-.9591,.0721-1.4219h-11.4188v20.0547c0,1.3979,.3506,2.3755,1.0723,2.9873,.7715,.6553,1.793,.9736,3.123,.9736,1.9736,0,4.3975-.4448,7.2012-1.3218l.0283-.0089v-2.1362l1.4258,.6714c2.1426,1.0088,4.5986,1.8677,7.3008,2.5527,2.6797,.6792,5.0615,1.0239,7.0781,1.0239,5.4844,0,5.4844-2.0698,5.4844-2.75,0-.6714-.1885-1.1904-.5752-1.5864-.4971-.5088-1.4121-1.1167-2.7197-1.8066Z"/><path class="c" d="M552.0079,74.7813c-1.2988-1.4009-3.0264-2.082-5.2822-2.082-2.249,0-3.9473,.6768-5.1924,2.0688-1.1006,1.231-1.8047,2.96-2.0996,5.1499h14.5615c-.1865-2.188-.8535-3.9131-1.9873-5.1367Z"/></g></svg>